<svg width="22" height="28" viewBox="0 0 22 28" fill="none" xmlns="http://www.w3.org/2000/svg">
<path id="Vector" d="M19.2521 10.4968H18.3361V7C18.3361 3.14078 15.0453 0 11.0017 0C6.95806 0 3.66722 3.1376 3.66722 7V10.5H2.75125C1.23573 10.5 0 11.6762 0 13.1258V25.3742C0 26.8206 1.23573 28 2.75125 28H19.2488C20.7643 28 22 26.8238 22 25.3742V13.1226C22 11.6762 20.7676 10.4968 19.2521 10.4968ZM6.11204 7C6.11204 4.42825 8.30371 2.33333 11.0017 2.33333C13.6996 2.33333 15.8913 4.42507 15.8913 7V10.5H6.11204V7ZM12.2241 19.5059V22.1635C12.2241 22.8088 11.6778 23.3302 11.0017 23.3302C10.3255 23.3302 9.77926 22.8088 9.77926 22.1635V19.5059C9.05314 19.1022 8.55685 18.3583 8.55685 17.4968C8.55685 16.2094 9.65269 15.1635 11.0017 15.1635C12.3506 15.1635 13.4465 16.2094 13.4465 17.4968C13.4465 18.3551 12.9502 19.099 12.2241 19.5059Z" fill="white"/>
</svg>
